<svg id="Layer_1" data-name="Layer 1" xmlns="http://www.w3.org/2000/svg" xmlns:xlink="http://www.w3.org/1999/xlink" viewBox="0 0 37.61 42"><defs><style>.cls-1,.cls-3{fill:#fff;}.cls-1{opacity:0;}.cls-2{fill:url(#linear-gradient);}</style><linearGradient id="linear-gradient" x1="-277.18" y1="407.41" x2="-277.72" y2="408.24" gradientTransform="matrix(34.64, 0, 0, -38.76, 9629.82, 15829.01)" gradientUnits="userSpaceOnUse"><stop offset="0" stop-color="#57048a"/><stop offset="1" stop-color="#4528dc"/></linearGradient></defs><rect class="cls-1" width="37.61" height="42"/><path class="cls-2" d="M20.87,1.55,34.61,9.49a4.13,4.13,0,0,1,2.07,3.57V28.94a4.12,4.12,0,0,1-2.07,3.57L20.87,40.45a4.17,4.17,0,0,1-4.13,0L3,32.51A4.12,4.12,0,0,1,.93,28.94V13.06A4.13,4.13,0,0,1,3,9.49L16.74,1.55A4.17,4.17,0,0,1,20.87,1.55Z" transform="translate(0)"/><path class="cls-3" d="M11.74,28.07H25.87V13.94H11.74Zm10.62-8.15h.44L23.9,21V19.92h.62v2.17h-.44L23,21v1.11h-.62Zm-2.32,0H22.2v1.7h-.46l.46.47h-.87l-.67-.68v.68H20Zm-2.32,0h2.17v2.17h-.62v-.47h-.93v.47h-.62Zm-2.31,0h2.16v.62H16v.16h1.54v.61H16v.16h1.54v.62H15.41Zm-2.32,0h.62v1.55h.92v-.31h.62v.93H13.09Z" transform="translate(0)"/><rect class="cls-3" x="18.34" y="20.54" width="0.93" height="0.47"/><rect class="cls-3" x="20.66" y="20.54" width="0.93" height="0.47"/><path class="cls-3" d="M9.48,30.34H28.13V11.68H9.48Zm1.06-17.61H27.07V29.28H10.54Z" transform="translate(0)"/><path class="cls-3" d="M20.7,9.08h-1v2.17h1.43V9.08Z" transform="translate(0)"/><path class="cls-3" d="M14.28,9.08h-1v2.17h1.43V9.08Z" transform="translate(0)"/><path class="cls-3" d="M17.53,9.08h-1v2.17h1.43V9.08Z" transform="translate(0)"/><path class="cls-3" d="M23.94,9.08H22.89v2.17h1.43V9.08Z" transform="translate(0)"/><path class="cls-3" d="M6.89,19.11h0v.61h0v.4H9.06V18.69H6.89Z" transform="translate(0)"/><path class="cls-3" d="M6.89,25.53h0v.61h0v.38H9.06V25.09H6.89Z" transform="translate(0)"/><path class="cls-3" d="M6.89,22.28h0v.62h0v.42H9.06V21.89H6.89Z" transform="translate(0)"/><path class="cls-3" d="M6.89,15.87h0v.61h0v.44H9.06V15.49H6.89Z" transform="translate(0)"/><path class="cls-3" d="M30.73,18.67H28.56V20.1h2.17v-.39h0V19.1h0Z" transform="translate(0)"/><path class="cls-3" d="M30.73,25.07H28.56V26.5h2.17v-.38h0v-.6h0Z" transform="translate(0)"/><path class="cls-3" d="M30.73,21.87H28.56V23.3h2.17v-.42h0v-.61h0Z" transform="translate(0)"/><path class="cls-3" d="M30.73,15.48H28.56v1.43h2.17v-.45h0v-.61h0Z" transform="translate(0)"/><path class="cls-3" d="M21.12,32.91V30.73H19.69v2.18h1.43Z" transform="translate(0)"/><path class="cls-3" d="M14.72,32.91V30.73H13.29v2.18h1.43Z" transform="translate(0)"/><path class="cls-3" d="M17.92,32.91V30.73H16.49v2.18h1.43Z" transform="translate(0)"/><path class="cls-3" d="M24.32,32.91V30.73H22.89v2.18h1.43Z" transform="translate(0)"/><path class="cls-3" d="M6.89,21.89v1.43H9.05V21.89Z" transform="translate(0)"/><path class="cls-3" d="M6.89,25.09v1.43H9.05V25.09Z" transform="translate(0)"/><path class="cls-3" d="M6.89,15.49v1.43H9.05V15.49Z" transform="translate(0)"/><path class="cls-3" d="M6.89,18.69v1.43H9.05V18.69Z" transform="translate(0)"/></svg>