<svg id="Layer_1" data-name="Layer 1" xmlns="http://www.w3.org/2000/svg" xmlns:xlink="http://www.w3.org/1999/xlink" viewBox="0 0 37.61 42"><defs><style>.cls-1{fill:url(#linear-gradient);}.cls-2,.cls-3{fill:#fff;}.cls-3{opacity:0;}</style><linearGradient id="linear-gradient" x1="-277.18" y1="407.41" x2="-277.72" y2="408.24" gradientTransform="matrix(34.64, 0, 0, -38.76, 9629.82, 15829.01)" gradientUnits="userSpaceOnUse"><stop offset="0" stop-color="#8c043a"/><stop offset="1" stop-color="#4528dc"/></linearGradient></defs><path class="cls-1" d="M20.87,1.55,34.61,9.49a4.13,4.13,0,0,1,2.07,3.57V28.94a4.12,4.12,0,0,1-2.07,3.57L20.87,40.45a4.17,4.17,0,0,1-4.13,0L3,32.51A4.12,4.12,0,0,1,.93,28.94V13.06A4.13,4.13,0,0,1,3,9.49L16.74,1.55A4.17,4.17,0,0,1,20.87,1.55Z" transform="translate(0)"/><path class="cls-2" d="M9.48,30.33H28.14V11.67H9.48Zm1.06-17.6H27.07V29.27H10.54Z" transform="translate(0)"/><path class="cls-2" d="M20.69,9.08h-1v2.18h1.43V9.08Z" transform="translate(0)"/><path class="cls-2" d="M14.27,9.08h-1v2.18h1.43V9.08Z" transform="translate(0)"/><path class="cls-2" d="M17.52,9.08h-1v2.18h1.43V9.08Z" transform="translate(0)"/><path class="cls-2" d="M23.94,9.08H22.88v2.18h1.43V9.08Z" transform="translate(0)"/><path class="cls-2" d="M6.88,19.12h0v.61h0v.4H9.05V18.7H6.88Z" transform="translate(0)"/><path class="cls-2" d="M6.88,25.54h0v.61h0v.38H9.05V25.1H6.88Z" transform="translate(0)"/><path class="cls-2" d="M6.88,22.29h0v.61h0v.43H9.05V21.9H6.88Z" transform="translate(0)"/><path class="cls-2" d="M6.88,15.88h0v.61h0v.44H9.05V15.5H6.88Z" transform="translate(0)"/><path class="cls-2" d="M30.73,18.68H28.56v1.43h2.17v-.4h0V19.1h0Z" transform="translate(0)"/><path class="cls-2" d="M30.73,25.08H28.56v1.43h2.17v-.38h0v-.61h0Z" transform="translate(0)"/><path class="cls-2" d="M30.73,21.88H28.56v1.43h2.17v-.42h0v-.61h0Z" transform="translate(0)"/><path class="cls-2" d="M30.73,15.48H28.56v1.43h2.17v-.44h0v-.61h0Z" transform="translate(0)"/><path class="cls-2" d="M21.12,32.92V30.74H19.69v2.18h1.43Z" transform="translate(0)"/><path class="cls-2" d="M14.72,32.92V30.74H13.29v2.18h1.43Z" transform="translate(0)"/><path class="cls-2" d="M17.92,32.92V30.74H16.49v2.18h1.43Z" transform="translate(0)"/><path class="cls-2" d="M24.31,32.92V30.74H22.88v2.18h1.43Z" transform="translate(0)"/><path class="cls-2" d="M6.89,21.89v1.43H9.05V21.89Z" transform="translate(0)"/><path class="cls-2" d="M6.89,25.09v1.43H9.05V25.09Z" transform="translate(0)"/><path class="cls-2" d="M6.89,15.49v1.43H9.05V15.49Z" transform="translate(0)"/><path class="cls-2" d="M6.89,18.69v1.43H9.05V18.69Z" transform="translate(0)"/><path class="cls-2" d="M11.74,13.93V28.07H25.87V13.93Zm6.06,8.16H15.64V19.91h.61v1.55h.93v-.31h.62Zm1.86-1.55h-.78v1.55h-.61V20.54h-.78v-.63h2.17Zm2.32,0H20.43v.15H22v1.4H19.81v-.63h1.54v-.15H19.81v-1.4H22Z" transform="translate(0)"/><rect class="cls-3" width="37.61" height="42"/></svg>