<svg width="1024" height="225" viewBox="0 0 1024 225" fill="none" xmlns="http://www.w3.org/2000/svg">
<g clip-path="url(#clip0)">
<path d="M197.648 68.8237C192.815 65.9756 186.533 65.9756 181.218 68.8237L143.524 90.6592L117.912 104.9L80.219 126.735C75.3865 129.583 69.1043 129.583 63.7886 126.735L33.8273 109.646C28.9948 106.798 25.6121 101.577 25.6121 95.8807V62.1781C25.6121 56.4819 28.5116 51.2604 33.8273 48.4123L63.3053 31.7984C68.1378 28.9503 74.42 28.9503 79.7357 31.7984L109.214 48.4123C114.046 51.2604 117.429 56.4819 117.429 62.1781V84.0136L143.041 69.2984V47.463C143.041 41.7667 140.142 36.5452 134.826 33.6971L80.219 2.36801C75.3865 -0.480092 69.1043 -0.480092 63.7886 2.36801L8.2152 33.6971C2.89948 36.5452 0 41.7667 0 47.463V110.596C0 116.292 2.89948 121.514 8.2152 124.362L63.7886 155.691C68.621 158.539 74.9033 158.539 80.219 155.691L117.912 134.33L143.524 119.615L181.218 98.2541C186.05 95.406 192.332 95.406 197.648 98.2541L227.126 114.868C231.958 117.716 235.341 122.938 235.341 128.634V162.336C235.341 168.033 232.442 173.254 227.126 176.102L197.648 193.191C192.815 196.039 186.533 196.039 181.218 193.191L151.74 176.577C146.907 173.729 143.524 168.507 143.524 162.811V140.976L117.912 155.691V177.526C117.912 183.222 120.812 188.444 126.127 191.292L181.701 222.621C186.533 225.469 192.815 225.469 198.131 222.621L253.705 191.292C258.537 188.444 261.92 183.222 261.92 177.526V114.393C261.92 108.697 259.02 103.476 253.705 100.628L197.648 68.8237Z" fill="#8247E5"/>
</g>
<defs>
<clipPath id="clip0">
<rect width="1024" height="225" fill="white"/>
</clipPath>
</defs>
</svg>
